<svg xmlns="http://www.w3.org/2000/svg" width="179" height="24" viewBox="0 0 179 24">
    <g fill="#000" fill-rule="nonzero">
        <path d="M38.948 3.286c4.797 0 8.7 3.91 8.7 8.714s-3.905 8.714-8.702 8.714c-4.796 0-8.697-3.914-8.697-8.714 0-4.8 3.903-8.714 8.7-8.714m0-3.26C32.344.026 26.99 5.387 26.99 12s5.354 11.974 11.957 11.974c6.604 0 11.958-5.361 11.958-11.974S45.552.026 38.948.026M83.797 0a.326.326 0 0 0-.273.153L71.206 16.824 58.886.154a.316.316 0 0 0-.27-.154.326.326 0 0 0-.333.321v22.215h3.26V9.416l9.471 12.725a.25.25 0 0 0 .192.092.246.246 0 0 0 .19-.092l9.471-12.724v13.12h3.259V.322a.325.325 0 0 0-.33-.321M96 15.19v8.079h-3.257V.73"/>
        <path d="M103.597.733H92.742v22.536H96v-8.08h7.597c3.988 0 7.218-3.237 7.218-7.23 0-3.992-3.23-7.228-7.218-7.228v.002zm0 11.195H96V3.997h7.597a3.969 3.969 0 0 1 3.962 3.965 3.97 3.97 0 0 1-3.96 3.97l-.002-.004zm-84.678 5.396a8.683 8.683 0 0 1-6.878 3.39c-4.8 0-8.7-3.91-8.7-8.714s3.901-8.714 8.7-8.714a8.683 8.683 0 0 1 6.878 3.39l2.34-2.302A11.928 11.928 0 0 0 12.04.024C5.437.026.083 5.387.083 12s5.354 11.974 11.958 11.974c3.71 0 7.024-1.693 9.217-4.348l-2.339-2.3v-.002zm129.323 6.344c-3.766 0-6.4-2.086-7.944-3.84l2.297-2.242c.572.746 2.507 2.895 5.646 2.895 2.935 0 4.984-1.477 4.984-3.596 0-1.81-1.231-3.028-3.762-3.724l-2.745-.627c-5.871-1.44-5.871-4.961-5.871-6.119 0-3.64 2.935-6.086 7.303-6.086 2.867 0 5.308 1.089 7.459 3.341l-2.295 2.247c-.59-.617-2.52-2.4-5.166-2.4-2.573 0-4.048 1.052-4.048 2.898 0 .549.208 2.382 2.887 2.96l2.5.563c4.573 1.076 6.993 3.476 6.993 6.941 0 3.87-3.545 6.787-8.241 6.787l.003.002zm21.933 0c-3.766 0-6.399-2.086-7.944-3.84l2.296-2.242c.573.746 2.507 2.895 5.646 2.895 2.935 0 4.985-1.477 4.985-3.596 0-1.81-1.23-3.028-3.763-3.724l-2.745-.627c-5.87-1.44-5.87-4.961-5.87-6.119 0-3.64 2.934-6.086 7.302-6.086 2.868 0 5.308 1.089 7.459 3.341l-2.295 2.247c-.59-.617-2.52-2.4-5.165-2.4-2.574 0-4.047 1.052-4.047 2.898 0 .549.207 2.382 2.887 2.96l2.496.563c4.575 1.076 6.993 3.476 6.993 6.941 0 3.87-3.544 6.787-8.24 6.787l.005.002zM44.082 9.164l-7.966 7.976-2.302-2.304 7.964-7.976 2.304 2.304zM124.385.72a.325.325 0 0 0-.296-.185.324.324 0 0 0-.299.185l-11.876 22.55h3.685l3.04-5.778h10.896l3.043 5.779h3.683L124.385.72zm-4.025 13.51l3.73-7.084 3.728 7.086h-7.458v-.002z"/>
    </g>
</svg>
