<svg xmlns="http://www.w3.org/2000/svg" width="419" height="131" viewBox="0 0 419 131">
    <g fill="#FFF" fill-rule="nonzero">
        <path d="M162.592 54.286a25.523 25.523 0 0 0 0-3.531c-.753-10.075-7.126-17.676-12.34-22.308-5.437-4.747-11.816-8.303-18.005-11.74-1.684-.936-3.36-1.898-5.012-2.816l-8.784-5.063a3321.671 3321.671 0 0 0-13.29-7.65L104.262.6l-.924.532-78.195 45.173L0 60.823V97.53l28.63 16.53c6.961 4.006 14.815 8.55 23.567 11.39a113.116 113.116 0 0 0 26.036 5.064c3.375.27 6.75.405 10.126.405 5.638.002 11.27-.377 16.859-1.133a105.566 105.566 0 0 0 25.314-6.57c9.208-3.727 16.7-8.498 22.257-14.181 6.664-6.822 10.043-14.992 9.771-23.63V54.285h.032zM3.69 65.114l24.915 14.385c6.961 4.006 14.815 8.55 23.567 11.391a113.135 113.135 0 0 0 26.036 5.063c8.999.724 18.05.48 26.997-.728a105.566 105.566 0 0 0 25.314-6.569c9.214-3.727 16.701-8.5 22.257-14.182a38.13 38.13 0 0 0 5.842-7.67c-.766 6.138-3.525 11.492-8.506 16.587-5.196 5.316-12.258 9.803-20.992 13.334a101.85 101.85 0 0 1-24.434 6.328 122.267 122.267 0 0 1-26.2.71 109.483 109.483 0 0 1-25.175-4.918c-8.34-2.683-16.036-7.113-22.82-11.056L3.69 72.335v-7.221zm146.53-2.101c-5.405-4.778-11.784-8.328-17.98-11.784-1.683-.936-3.36-1.867-5.012-2.816l-8.765-5.063c-4.425-2.56-8.855-5.115-13.29-7.664l-.924-.531-.924.531L48.49 67.33l-16.72 9.689-1.266-.734-4.986-2.905 78.745-45.432a3594.01 3594.01 0 0 1 12.34 7.126l8.772 5.062c1.67.962 3.398 1.899 5.063 2.848 6.018 3.342 12.245 6.797 17.353 11.303a36.477 36.477 0 0 1 8.087 9.917 30.814 30.814 0 0 1-1.664 2.759 45.66 45.66 0 0 0-3.962-3.955l-.031.006zm1.69 6.955c-.558.633-1.133 1.297-1.754 1.93-5.195 5.316-12.258 9.803-20.991 13.334a101.826 101.826 0 0 1-24.435 6.329 122.349 122.349 0 0 1-26.2.709 109.439 109.439 0 0 1-25.174-4.918c-6.38-2.082-12.354-5.151-17.834-8.227l14.84-8.569 53.9-31.098a3594.01 3594.01 0 0 1 12.34 7.126l8.772 5.063c1.67.962 3.398 1.898 5.063 2.848 6.018 3.341 12.245 6.797 17.353 11.302a41.458 41.458 0 0 1 4.12 4.184v-.013zm-1.659-18.473c-5.41-4.772-11.815-8.328-18.004-11.765-1.684-.936-3.36-1.867-5.012-2.816l-8.765-5.063c-4.426-2.56-8.856-5.115-13.29-7.663l-.924-.532-.924.532-81.53 47.07-6.253-3.606 7.645-4.43 81.068-46.831c4.114 2.362 8.22 4.734 12.322 7.113l8.784 5.063c1.67.962 3.398 1.898 5.062 2.848 6.019 3.341 12.246 6.796 17.353 11.302 3.74 3.304 8.531 8.67 10.379 15.62-.14.53-.298 1.062-.475 1.594a41.939 41.939 0 0 0-7.442-8.493l.006.057zm-.101 54.9c-5.196 5.316-12.258 9.803-20.992 13.334a101.794 101.794 0 0 1-24.434 6.328 122.349 122.349 0 0 1-26.2.71 109.388 109.388 0 0 1-25.175-4.918c-8.385-2.734-16.074-7.177-22.858-11.094L3.69 95.358v-7.215l24.915 14.385c6.961 4.006 14.815 8.55 23.567 11.391a113.147 113.147 0 0 0 26.036 5.063c3.375.27 6.75.405 10.125.405 5.65.023 11.296-.337 16.897-1.076a105.566 105.566 0 0 0 25.314-6.569c9.208-3.727 16.701-8.499 22.258-14.182a37.142 37.142 0 0 0 5.822-7.645c-1 7.405-4.993 12.986-8.487 16.556l.013-.076zm-.013-11.436c-5.195 5.316-12.258 9.803-20.991 13.334a101.826 101.826 0 0 1-24.435 6.329 122.349 122.349 0 0 1-26.2.709 109.42 109.42 0 0 1-25.174-4.918c-8.386-2.734-16.075-7.176-22.859-11.093L3.69 83.846v-7.22L28.605 91.01c6.961 4.006 14.815 8.55 23.567 11.391a113.147 113.147 0 0 0 26.036 5.063c3.375.27 6.75.405 10.125.405 5.639.003 11.272-.376 16.86-1.132a105.534 105.534 0 0 0 25.313-6.57c9.246-3.683 16.752-8.435 22.308-14.131a37.142 37.142 0 0 0 5.848-7.683c-.766 6.139-3.525 11.5-8.506 16.594l-.019.012zm.114-54.97c-5.41-4.777-11.815-8.328-18.004-11.764-1.684-.936-3.36-1.898-5.012-2.816l-8.784-5.063a3321.673 3321.673 0 0 0-13.29-7.651l-.924-.532-.924.532-81.98 47.325-9.492 5.486-6.253-3.613 21.41-12.366 77.264-44.61c4.114 2.363 8.22 4.734 12.322 7.113l8.784 5.063c1.67.962 3.398 1.899 5.062 2.848 6.019 3.342 12.246 6.797 17.353 11.303 4.57 4.031 10.126 10.562 11.005 19.03a41.363 41.363 0 0 0-8.543-10.303l.006.019zM223.826 57.19a10.689 10.689 0 0 0 11.632 2.21 10.594 10.594 0 0 0 3.33-2.266 10.252 10.252 0 0 0 2.189-3.335c.521-1.291.785-2.671.778-4.063.008-1.41-.256-2.81-.778-4.12a9.955 9.955 0 0 0-2.171-3.323 10.195 10.195 0 0 0-3.316-2.19 11.455 11.455 0 0 0-8.322 0 9.891 9.891 0 0 0-5.55 5.488 10.847 10.847 0 0 0-.798 4.164 10.72 10.72 0 0 0 .798 4.126 10.202 10.202 0 0 0 2.208 3.335m1.52-10.183c.3-.796.75-1.526 1.328-2.151a6.107 6.107 0 0 1 2.025-1.418 6.753 6.753 0 0 1 5.228 0 5.987 5.987 0 0 1 2.019 1.437 6.759 6.759 0 0 1 1.265 2.17 7.93 7.93 0 0 1 0 5.424 6.828 6.828 0 0 1-1.335 2.19 5.961 5.961 0 0 1-2.025 1.436 6.474 6.474 0 0 1-5.063 0 6.164 6.164 0 0 1-2.044-1.424 7.044 7.044 0 0 1-1.411-2.177 7.17 7.17 0 0 1-.52-2.778 7.594 7.594 0 0 1 .482-2.747M249.33 48.698c0-1.854.437-3.304 1.266-4.304.854-1 2.123-1.55 3.436-1.487a3.797 3.797 0 0 1 1.703.367c.497.246.93.603 1.265 1.045.362.483.638 1.024.817 1.6a6.67 6.67 0 0 1 .297 2.032v11.607h3.968v-10.86a7.727 7.727 0 0 1 .405-2.645c.238-.659.601-1.265 1.07-1.785a3.93 3.93 0 0 1 1.474-1.013 4.645 4.645 0 0 1 3.608.076c.498.26.931.63 1.265 1.082.346.478.598 1.017.74 1.589a7.91 7.91 0 0 1 .241 1.98V59.59h3.924V48.198c0-2.873-.709-5.063-2.114-6.607a7.183 7.183 0 0 0-5.487-2.291 7.835 7.835 0 0 0-2.385.354 7.449 7.449 0 0 0-1.975.956 7.727 7.727 0 0 0-2.076 2.088 6.29 6.29 0 0 0-2.044-2.227 7.202 7.202 0 0 0-4.12-1.19 6.563 6.563 0 0 0-3.474.95 9.056 9.056 0 0 0-1.81 1.449v-1.747h-3.93V59.55h3.93V48.698h.006zM293.788 59.418a9.74 9.74 0 0 0 3.164-2.234 10.36 10.36 0 0 0 2.089-3.335 11.22 11.22 0 0 0 .753-4.12 11.765 11.765 0 0 0-.633-3.866 10.05 10.05 0 0 0-1.899-3.335 9.448 9.448 0 0 0-7.303-3.228 9.797 9.797 0 0 0-2.645.33 9.423 9.423 0 0 0-2.05.822c-.56.31-1.081.686-1.55 1.12l-.488.475v-2.114h-3.924v28.87h3.924V57.615a10.53 10.53 0 0 0 2.234 1.613 9 9 0 0 0 4.38 1.013 9.727 9.727 0 0 0 3.973-.823m-6.898-3.284a6.38 6.38 0 0 1-3.506-3.519 7.259 7.259 0 0 1-.519-2.784 7.879 7.879 0 0 1 .5-2.886c.31-.812.77-1.56 1.355-2.202a5.778 5.778 0 0 1 2-1.412 6.278 6.278 0 0 1 2.487-.493c.979-.02 1.95.18 2.841.588.775.366 1.464.89 2.025 1.538.545.646.96 1.392 1.222 2.196a8.138 8.138 0 0 1 0 5.107 6.74 6.74 0 0 1-1.203 2.196 6.12 6.12 0 0 1-2.006 1.557 6.544 6.544 0 0 1-5.253.107M316.735 59.228c.805-.44 1.55-.982 2.215-1.613v1.955h3.924V39.952h-3.924v2.082a14.447 14.447 0 0 0-.443-.437 8.138 8.138 0 0 0-1.557-1.126 9.493 9.493 0 0 0-1.898-.823 8.316 8.316 0 0 0-2.437-.335 10.505 10.505 0 0 0-4.069.778 10.043 10.043 0 0 0-3.253 2.17 9.942 9.942 0 0 0-2.17 3.317 11.695 11.695 0 0 0 .044 8.486 10.391 10.391 0 0 0 2.209 3.317 9.689 9.689 0 0 0 3.22 2.132c1.208.487 2.497.736 3.798.734a8.797 8.797 0 0 0 4.322-1.012m-8.765-4.766a6.253 6.253 0 0 1-1.196-2.19 8.53 8.53 0 0 1-.392-2.53c0-.861.14-1.716.411-2.532.262-.808.67-1.56 1.203-2.221a5.772 5.772 0 0 1 2.012-1.57 6.753 6.753 0 0 1 2.905-.588 6.006 6.006 0 0 1 4.43 1.898 6.772 6.772 0 0 1 1.367 2.196c.345.922.515 1.901.5 2.886a6.898 6.898 0 0 1-.538 2.76 7.018 7.018 0 0 1-1.43 2.145 6.436 6.436 0 0 1-2.032 1.398 5.993 5.993 0 0 1-2.392.494 6.183 6.183 0 0 1-4.873-2.165M339.967 54.134a6.328 6.328 0 0 0-.297-1.93 5.341 5.341 0 0 0-.981-1.766 7.208 7.208 0 0 0-1.779-1.5c-.856-.507-1.77-.91-2.72-1.202a11.075 11.075 0 0 1-1.994-.772 5.803 5.803 0 0 1-1.12-.747 1.563 1.563 0 0 1-.456-.633 2.234 2.234 0 0 1-.114-.709 1.962 1.962 0 0 1 .633-1.468 2.702 2.702 0 0 1 1.943-.633 2.531 2.531 0 0 1 1.702.633c.481.406.81.964.93 1.582l.07.323h4l-.114-.5a8.803 8.803 0 0 0-.74-2.082 6.265 6.265 0 0 0-1.323-1.747 6.145 6.145 0 0 0-1.981-1.202 7.525 7.525 0 0 0-2.677-.437 7.676 7.676 0 0 0-2.696.437 5.835 5.835 0 0 0-1.987 1.202 5.063 5.063 0 0 0-1.215 1.772 5.594 5.594 0 0 0-.405 2.101 5.398 5.398 0 0 0 1.367 3.798 9.423 9.423 0 0 0 4.126 2.297c.708.226 1.4.5 2.07.822.436.206.837.48 1.189.81.238.224.418.502.525.81.095.319.142.65.14.981a2.323 2.323 0 0 1-.665 1.697 2.785 2.785 0 0 1-2.063.683 3.234 3.234 0 0 1-2.36-.766 3.848 3.848 0 0 1-1.051-1.936l-.07-.323h-3.974l.095.487c.154.818.416 1.612.778 2.36a6.6 6.6 0 0 0 1.424 1.9c.622.559 1.35.989 2.14 1.265.929.322 1.908.479 2.891.462a7.113 7.113 0 0 0 4.911-1.658 5.696 5.696 0 0 0 1.867-4.43M350.169 56.748a3.234 3.234 0 0 1-2.36-.766 3.848 3.848 0 0 1-1.045-1.937l-.07-.322h-3.974l.095.493c.155.818.417 1.611.778 2.36a6.6 6.6 0 0 0 1.424 1.9c.623.559 1.35.989 2.14 1.265.929.323 1.908.479 2.891.462a7.113 7.113 0 0 0 4.911-1.658 5.696 5.696 0 0 0 1.867-4.43 6.329 6.329 0 0 0-.297-1.93 5.329 5.329 0 0 0-.975-1.753 7.208 7.208 0 0 0-1.778-1.5c-.857-.507-1.77-.91-2.721-1.202a11.075 11.075 0 0 1-1.994-.773 5.778 5.778 0 0 1-1.101-.753 1.563 1.563 0 0 1-.456-.632 2.234 2.234 0 0 1-.114-.71 1.962 1.962 0 0 1 .633-1.467 2.702 2.702 0 0 1 1.943-.633 2.531 2.531 0 0 1 1.703.633c.48.406.809.964.93 1.582l.07.322h4l-.115-.5a8.816 8.816 0 0 0-.74-2.082 6.278 6.278 0 0 0-1.33-1.746 6.151 6.151 0 0 0-1.98-1.203 7.518 7.518 0 0 0-2.677-.436 7.676 7.676 0 0 0-2.696.436 5.848 5.848 0 0 0-1.987 1.203 5.063 5.063 0 0 0-1.215 1.772 5.594 5.594 0 0 0-.405 2.1 5.398 5.398 0 0 0 1.367 3.798 9.423 9.423 0 0 0 4.1 2.354c.706.226 1.396.501 2.064.823.436.206.838.48 1.19.81.237.223.418.501.525.81.088.31.13.632.126.955a2.323 2.323 0 0 1-.67 1.697 2.785 2.785 0 0 1-2.064.677M236.357 84.561a9.29 9.29 0 0 0-3.012-2.531 10.315 10.315 0 0 0-8.544-.17 9.632 9.632 0 0 0-3.07 2.24 9.993 9.993 0 0 0-1.961 3.252 10.993 10.993 0 0 0-.69 3.854 11.727 11.727 0 0 0 .753 4.234 10.537 10.537 0 0 0 2.101 3.411 9.493 9.493 0 0 0 3.278 2.278c1.344.559 2.786.838 4.24.823a9.645 9.645 0 0 0 3.114-.474 9.759 9.759 0 0 0 2.475-1.228 9.227 9.227 0 0 0 1.848-1.684c.485-.574.91-1.197 1.265-1.86l.317-.633h-4.43l-.12.152a6.164 6.164 0 0 1-1.9 1.557 5.696 5.696 0 0 1-2.613.531 5.816 5.816 0 0 1-2.36-.493 6.961 6.961 0 0 1-2-1.33 6.474 6.474 0 0 1-1.38-1.898 5.202 5.202 0 0 1-.493-1.854h15.188l.076-.31c.04-.194.063-.391.07-.589v-.633a12.46 12.46 0 0 0-.507-3.373 9.803 9.803 0 0 0-1.658-3.297l.013.025zm-13.144 4.778c.098-.516.255-1.02.468-1.5a5.544 5.544 0 0 1 1.152-1.683 5.607 5.607 0 0 1 1.74-1.17 5.632 5.632 0 0 1 6.208 1.177c.49.478.887 1.042 1.171 1.664.226.49.39 1.007.487 1.538h-11.214l-.012-.026zM252.792 81.67l-3.987 11.239a49.337 49.337 0 0 0-.943 3.088 33.806 33.806 0 0 0-.987-3.088l-4.031-11.24h-4.063l7.259 19.619h3.518l7.259-19.619h-4.025zM274.087 84.561a9.29 9.29 0 0 0-3.012-2.531 10.315 10.315 0 0 0-8.543-.17 9.632 9.632 0 0 0-3.07 2.24 9.993 9.993 0 0 0-1.962 3.252 10.993 10.993 0 0 0-.69 3.854 11.727 11.727 0 0 0 .754 4.234 10.537 10.537 0 0 0 2.1 3.411 9.493 9.493 0 0 0 3.279 2.278c1.343.559 2.786.838 4.24.823a9.645 9.645 0 0 0 3.107-.474 9.759 9.759 0 0 0 2.475-1.228 9.227 9.227 0 0 0 1.848-1.684c.485-.574.91-1.197 1.265-1.86l.317-.633h-4.43l-.127.152a6.164 6.164 0 0 1-1.898 1.557 5.696 5.696 0 0 1-2.614.531 5.816 5.816 0 0 1-2.36-.493 6.961 6.961 0 0 1-2-1.33 6.474 6.474 0 0 1-1.38-1.898 5.202 5.202 0 0 1-.493-1.854h15.188l.076-.31c.04-.194.063-.391.07-.589v-.633a12.467 12.467 0 0 0-.507-3.373 9.803 9.803 0 0 0-1.658-3.297l.025.025zM260.93 89.34c.098-.516.256-1.02.469-1.5a5.544 5.544 0 0 1 1.152-1.683 5.632 5.632 0 0 1 9.075 1.645c.226.49.39 1.008.487 1.538H260.93zM279.27 73.695h3.924v27.611h-3.924zM304.16 84.024a10.183 10.183 0 0 0-3.316-2.19 11.46 11.46 0 0 0-8.322 0 9.891 9.891 0 0 0-5.55 5.487 10.84 10.84 0 0 0-.797 4.164c-.01 1.414.262 2.817.797 4.126a10.189 10.189 0 0 0 2.209 3.335 10.689 10.689 0 0 0 11.632 2.209 10.569 10.569 0 0 0 3.328-2.266 10.246 10.246 0 0 0 2.19-3.335c.521-1.29.786-2.67.779-4.063.008-1.41-.256-2.81-.779-4.12a9.961 9.961 0 0 0-2.17-3.322m-1.583 10.189a6.81 6.81 0 0 1-1.335 2.19 5.955 5.955 0 0 1-2.025 1.436 6.48 6.48 0 0 1-5.063 0 6.158 6.158 0 0 1-2.044-1.424 7.031 7.031 0 0 1-1.411-2.177 7.17 7.17 0 0 1-.52-2.778 7.594 7.594 0 0 1 .482-2.747c.3-.796.752-1.526 1.329-2.151a6.1 6.1 0 0 1 2.025-1.418 6.759 6.759 0 0 1 5.227 0c.77.338 1.46.834 2.025 1.456a6.753 6.753 0 0 1 1.266 2.17 7.923 7.923 0 0 1 0 5.398M327.968 84.264a9.448 9.448 0 0 0-7.303-3.228 9.455 9.455 0 0 0-4.696 1.152 7.93 7.93 0 0 0-1.55 1.12c-.17.159-.33.317-.487.475v-2.114h-3.943v28.871h3.924V99.326c.67.633 1.422 1.176 2.234 1.614a9 9 0 0 0 4.379 1.012 9.784 9.784 0 0 0 7.151-3.056 10.34 10.34 0 0 0 2.089-3.33c.507-1.313.763-2.71.753-4.12a11.765 11.765 0 0 0-.633-3.866 10.05 10.05 0 0 0-1.899-3.335m-1.898 9.74c-.26.8-.668 1.545-1.203 2.196a6.126 6.126 0 0 1-2.006 1.556 6.41 6.41 0 0 1-8.708-3.41 7.246 7.246 0 0 1-.519-2.785 7.898 7.898 0 0 1 .5-2.886c.31-.812.77-1.56 1.354-2.202a5.778 5.778 0 0 1 2-1.412 6.278 6.278 0 0 1 2.487-.493 6.525 6.525 0 0 1 2.842.582c.774.366 1.464.89 2.025 1.538.545.646.96 1.392 1.221 2.196a8.138 8.138 0 0 1 0 5.107M355.326 81.036a7.86 7.86 0 0 0-2.385.355 7.474 7.474 0 0 0-1.975.955 7.727 7.727 0 0 0-2.076 2.095 6.29 6.29 0 0 0-2.056-2.208 7.202 7.202 0 0 0-4.12-1.19 6.563 6.563 0 0 0-3.475.924 9.069 9.069 0 0 0-1.81 1.449v-1.747h-3.923v19.619h3.923V90.466c0-1.854.437-3.304 1.266-4.31.854-1 2.123-1.55 3.436-1.487a3.797 3.797 0 0 1 1.703.367c.497.246.93.603 1.266 1.044.361.483.637 1.025.816 1.601.203.658.303 1.343.297 2.032v11.606h3.968V90.466a7.727 7.727 0 0 1 .405-2.645c.231-.667.59-1.282 1.057-1.81a3.93 3.93 0 0 1 1.475-1.013 4.645 4.645 0 0 1 3.607.076c.499.26.932.63 1.266 1.082.345.478.597 1.017.74 1.589.164.647.244 1.313.24 1.98v11.607h3.924V89.941c0-2.873-.708-5.063-2.113-6.607a7.183 7.183 0 0 0-5.487-2.291M382.988 84.561a9.29 9.29 0 0 0-3.012-2.531 10.315 10.315 0 0 0-8.544-.17 9.632 9.632 0 0 0-3.069 2.24 9.993 9.993 0 0 0-1.962 3.252 10.993 10.993 0 0 0-.69 3.854 11.727 11.727 0 0 0 .754 4.234 10.537 10.537 0 0 0 2.1 3.411 9.493 9.493 0 0 0 3.279 2.278c1.343.559 2.785.838 4.24.823a9.645 9.645 0 0 0 3.107-.474 9.759 9.759 0 0 0 2.475-1.228 9.227 9.227 0 0 0 1.848-1.684c.485-.574.91-1.197 1.265-1.86l.317-.633h-4.43l-.127.152a6.164 6.164 0 0 1-1.898 1.557 5.696 5.696 0 0 1-2.614.531 5.816 5.816 0 0 1-2.36-.493 6.961 6.961 0 0 1-2-1.33 6.474 6.474 0 0 1-1.38-1.898 5.19 5.19 0 0 1-.494-1.854h15.189l.076-.31c.04-.194.063-.391.07-.589v-.633a12.467 12.467 0 0 0-.507-3.373 9.803 9.803 0 0 0-1.658-3.297l.025.025zm-13.157 4.778c.098-.516.255-1.02.469-1.5a5.544 5.544 0 0 1 1.151-1.683 5.632 5.632 0 0 1 9.075 1.645c.227.49.39 1.008.488 1.538H369.83zM402.93 83.017a6.778 6.778 0 0 0-2.532-1.525 8.316 8.316 0 0 0-5.98.228 6.923 6.923 0 0 0-2.355 1.69v-1.74h-3.923v19.618h3.923v-10.41c0-2.083.469-3.665 1.386-4.696a4.721 4.721 0 0 1 3.74-1.532 3.93 3.93 0 0 1 3.203 1.367c.784.93 1.177 2.31 1.177 4.114v11.176h3.923V89.915a10.714 10.714 0 0 0-.721-4.17 8.138 8.138 0 0 0-1.842-2.753M418.206 97.788a6.461 6.461 0 0 1-3.341.14 1.576 1.576 0 0 1-.734-.488 2.354 2.354 0 0 1-.462-1.019 8.29 8.29 0 0 1-.165-1.81v-9.53h5.025v-3.418h-5.025v-6.012h-3.923v6.012h-2.475v3.417h2.475v9.41c-.003.872.065 1.742.202 2.602.123.809.41 1.584.842 2.278a4.487 4.487 0 0 0 1.81 1.601 6.677 6.677 0 0 0 2.974.576 9.651 9.651 0 0 0 3.038-.418l.278-.094v-3.386l-.519.139zM203.38 61.254a15.188 15.188 0 0 0 14.213-9.987h-4.557a11.012 11.012 0 1 1 .127-10.163h4.525c-2.526-7.318-10.151-11.566-17.703-9.86-7.551 1.704-12.612 8.816-11.748 16.51.864 7.693 7.375 13.505 15.117 13.493M201.86 71.056H191.35v30.377h10.511c8.389 0 15.189-6.8 15.189-15.188 0-8.388-6.8-15.189-15.189-15.189m0 26.181h-6.328V75.24h6.328c6.077 0 11.002 4.925 11.002 11.002 0 6.076-4.925 11.002-11.002 11.002"/>
    </g>
</svg>
